<svg width="75" height="32" viewBox="0 0 75 32" fill="none" xmlns="http://www.w3.org/2000/svg">
<g clip-path="url(#clip0_114_365)">
<path d="M70.7266 26.9841V4.5094H75V26.9841H70.7266Z" fill="#0A0A0A"/>
<path d="M63.4312 26.9841V4.5094H67.7046V26.9841H63.4312Z" fill="#0A0A0A"/>
<path d="M53.1232 27.4906C48.3118 27.4906 44.8614 23.977 44.8614 19.0705C44.8614 14.164 48.3118 10.6504 53.1232 10.6504C57.9347 10.6504 61.3534 14.164 61.3534 19.0705C61.3534 23.977 57.9347 27.4906 53.1232 27.4906ZM53.1232 23.9136C55.4973 23.9136 57.0168 22.0144 57.0168 19.0705C57.0168 16.1266 55.4973 14.2274 53.1232 14.2274C50.7492 14.2274 49.2297 16.1266 49.2297 19.0705C49.2297 22.0144 50.7492 23.9136 53.1232 23.9136Z" fill="#0A0A0A"/>
<path d="M34.4617 26.9841V11.1569H38.735V14.4806C39.3998 12.3281 40.571 11.1569 42.2487 11.1569H45.1609V14.7338H42.5652C39.748 14.7338 38.735 16.2216 38.735 20.4V26.9841H34.4617Z" fill="#0A0A0A"/>
<path d="M27.5024 17.7094C27.5024 15.4935 26.5527 14.2274 24.9067 14.2274C22.7858 14.2274 21.393 16.2532 21.393 19.2921V26.9841H17.1197V11.1569H21.393V13.8475C22.3743 11.8533 24.2103 10.6504 26.5211 10.6504C29.8764 10.6504 31.7757 13.1511 31.7757 17.5194V26.9841H27.5024V17.7094Z" fill="#0A0A0A"/>
<path d="M0 26.9841V4.82596H14.8143V8.40292H4.36833V13.6892H12.9151V17.2662H4.36833V23.4072H14.8143V26.9841H0Z" fill="#0A0A0A"/>
</g>
<defs>
<clipPath id="clip0_114_365">
<rect width="75" height="32" fill="white"/>
</clipPath>
</defs>
</svg>
